<svg height="488pt" viewBox="0 -86 488.11503 488" width="488pt" xmlns="http://www.w3.org/2000/svg"><path d="m312 140.265625h-304v168h304zm-248 144c-13.253906 0-24-10.746094-24-24 0-13.257813 10.746094-24 24-24s24 10.742187 24 24c0 13.253906-10.746094 24-24 24zm0-72c-13.253906 0-24-10.746094-24-24 0-13.257813 10.746094-24 24-24s24 10.742187 24 24c0 13.253906-10.746094 24-24 24zm96 72c-13.253906 0-24-10.746094-24-24 0-13.257813 10.746094-24 24-24s24 10.742187 24 24c0 13.253906-10.746094 24-24 24zm0-72c-13.253906 0-24-10.746094-24-24 0-13.257813 10.746094-24 24-24s24 10.742187 24 24c0 13.253906-10.746094 24-24 24zm96 72c-13.253906 0-24-10.746094-24-24 0-13.257813 10.746094-24 24-24s24 10.742187 24 24c0 13.253906-10.746094 24-24 24zm0-72c-13.253906 0-24-10.746094-24-24 0-13.257813 10.746094-24 24-24s24 10.742187 24 24c0 13.253906-10.746094 24-24 24zm0 0" fill="#ff5023"/><path d="m88 188.265625c0 13.253906-10.746094 24-24 24s-24-10.746094-24-24c0-13.257813 10.746094-24 24-24s24 10.742187 24 24zm0 0" fill="#acabb1"/><path d="m88 260.265625c0 13.253906-10.746094 24-24 24s-24-10.746094-24-24c0-13.257813 10.746094-24 24-24s24 10.742187 24 24zm0 0" fill="#acabb1"/><path d="m184 188.265625c0 13.253906-10.746094 24-24 24s-24-10.746094-24-24c0-13.257813 10.746094-24 24-24s24 10.742187 24 24zm0 0" fill="#acabb1"/><path d="m184 260.265625c0 13.253906-10.746094 24-24 24s-24-10.746094-24-24c0-13.257813 10.746094-24 24-24s24 10.742187 24 24zm0 0" fill="#acabb1"/><path d="m280 188.265625c0 13.253906-10.746094 24-24 24s-24-10.746094-24-24c0-13.257813 10.746094-24 24-24s24 10.742187 24 24zm0 0" fill="#acabb1"/><path d="m280 260.265625c0 13.253906-10.746094 24-24 24s-24-10.746094-24-24c0-13.257813 10.746094-24 24-24s24 10.742187 24 24zm0 0" fill="#acabb1"/><path d="m437.03125 208-101.03125-199.921875-57.121094 28.867187 137.121094 271.320313 57.121094-28.867187-14.433594-28.558594zm0 0" fill="#d80027"/><path d="m350.433594 36.640625 21.421875-10.824219 21.648437 42.839844-21.417968 10.824219zm0 0" fill="#78b9eb"/><path d="m393.738281 122.324219 21.417969-10.828125 21.652344 42.839844-21.421875 10.828124zm0 0" fill="#78b9eb"/><path d="m437.03125 208 21.421875-10.824219 21.648437 42.839844-21.417968 10.824219zm0 0" fill="#78b9eb"/><path d="m437.03125 208 21.65625 42.839844zm0 0" fill="#78b9eb"/><g fill="#231f20"><path d="m312 132.265625h-304c-4.417969 0-8 3.578125-8 8v168c0 4.417969 3.582031 8 8 8h304c4.417969 0 8-3.582031 8-8v-168c0-4.421875-3.582031-8-8-8zm-8 168h-288v-152h288zm0 0"/><path d="m64 220.265625c17.671875 0 32-14.328125 32-32 0-17.675781-14.328125-32-32-32s-32 14.324219-32 32c0 17.671875 14.328125 32 32 32zm0-48c8.835938 0 16 7.160156 16 16 0 8.835937-7.164062 16-16 16s-16-7.164063-16-16c0-8.839844 7.164062-16 16-16zm0 0"/><path d="m64 292.265625c17.671875 0 32-14.328125 32-32 0-17.675781-14.328125-32-32-32s-32 14.324219-32 32c0 17.671875 14.328125 32 32 32zm0-48c8.835938 0 16 7.160156 16 16 0 8.835937-7.164062 16-16 16s-16-7.164063-16-16c0-8.839844 7.164062-16 16-16zm0 0"/><path d="m160 220.265625c17.671875 0 32-14.328125 32-32 0-17.675781-14.328125-32-32-32s-32 14.324219-32 32c0 17.671875 14.328125 32 32 32zm0-48c8.835938 0 16 7.160156 16 16 0 8.835937-7.164062 16-16 16s-16-7.164063-16-16c0-8.839844 7.164062-16 16-16zm0 0"/><path d="m160 292.265625c17.671875 0 32-14.328125 32-32 0-17.675781-14.328125-32-32-32s-32 14.324219-32 32c0 17.671875 14.328125 32 32 32zm0-48c8.835938 0 16 7.160156 16 16 0 8.835937-7.164062 16-16 16s-16-7.164063-16-16c0-8.839844 7.164062-16 16-16zm0 0"/><path d="m256 220.265625c17.671875 0 32-14.328125 32-32 0-17.675781-14.328125-32-32-32s-32 14.324219-32 32c0 17.671875 14.328125 32 32 32zm0-48c8.835938 0 16 7.160156 16 16 0 8.835937-7.164062 16-16 16s-16-7.164063-16-16c0-8.839844 7.164062-16 16-16zm0 0"/><path d="m256 292.265625c17.671875 0 32-14.328125 32-32 0-17.675781-14.328125-32-32-32s-32 14.324219-32 32c0 17.671875 14.328125 32 32 32zm0-48c8.835938 0 16 7.160156 16 16 0 8.835937-7.164062 16-16 16s-16-7.164063-16-16c0-8.839844 7.164062-16 16-16zm0 0"/><path d="m487.246094 236.398438-21.644532-42.839844c-1.996093-3.941406-6.808593-5.523438-10.753906-3.527344l-14.28125 7.199219-14.398437-28.558594 14.28125-7.199219c3.941406-1.996094 5.523437-6.808594 3.527343-10.753906l-21.648437-42.839844c-1.996094-3.941406-6.808594-5.523437-10.753906-3.527344l-14.277344 7.199219-14.402344-28.558593 14.28125-7.199219c3.949219-1.992188 5.53125-6.808594 3.535157-10.753907l-21.648438-42.839843c-1.992188-3.945313-6.808594-5.523438-10.75-3.527344l-14.28125 7.199219-10.824219-21.421875c-1.992187-3.945313-6.808593-5.523438-10.75-3.53125l-57.121093 28.867187c-3.945313 1.988282-5.53125 6.804688-3.535157 10.75l137.121094 271.320313c1.988281 3.949219 6.804687 5.53125 10.75 3.535156l57.121094-28.871094c3.945312-1.992187 5.53125-6.804687 3.535156-10.75l-10.886719-21.402343 14.269532-7.199219c1.902343-.957031 3.339843-2.628907 4.003906-4.648438.664062-2.023437.496094-4.222656-.46875-6.121093zm-75.621094-114.160157 14.398438 28.5625-7.136719 3.605469-14.398438-28.558594zm-43.296875-85.679687 14.398437 28.5625-7.140624 3.605468-14.402344-28.558593zm51.199219 260.953125-129.925782-257.039063 42.839844-21.648437 129.957032 257.039062zm28.257812-85.984375 7.144532-3.609375 14.398437 28.5625-7.144531 3.605469zm0 0"/></g></svg>