<svg viewBox="-76 0 512 512" xmlns="http://www.w3.org/2000/svg"><path d="m330 331-75.902344 48.898438-57.296875-15.597657-16.800781-3.300781-150-30 63.300781-48.898438 56.699219 12.898438zm0 0" fill="#f66"/><path d="m196.800781 364.300781-16.800781-3.300781v-60l150 30-75.902344 48.898438zm0 0" fill="#ff3e48"/><path d="m330 181-60.902344 27.300781-72.296875 12.597657h-.300781l-16.5-2.398438-150-22.5 70.199219-51 63 11.097656 16.800781 2.402344zm0 0" fill="#f66"/><path d="m196.5 220.898438-16.5-2.398438v-60l150 22.5-60.902344 27.300781-72.296875 12.597657zm0 0" fill="#ff3e48"/><path d="m330 331v60l-300 75v-60l150-37.5 16.800781-4.199219zm0 0" fill="#ff8597"/><path d="m196.800781 364.300781 133.199219-33.300781v60l-150 37.5v-60zm0 0" fill="#f66"/><path d="m330 181v60l-300 90v-60l150-45 16.5-5.101562h.300781zm0 0" fill="#ff8597"/><path d="m196.800781 220.898438 133.199219-39.898438v60l-150 45v-60l16.5-5.101562zm0 0" fill="#f66"/><path d="m330 46v60l-150 45-16.800781 5.097656-133.199219 39.902344v-60zm0 0" fill="#ff8597"/><path d="m330 46v60l-150 45v-60zm0 0" fill="#f66"/><path d="m360 0v31c0 16.5-13.5 30-30 30h-300c-16.5 0-30-13.5-30-30v-31zm0 0" fill="#725d57"/><path d="m360 0v31c0 16.5-13.5 30-30 30h-150v-61zm0 0" fill="#53433f"/><path d="m360 481v31h-360v-31c0-16.5 13.5-30 30-30h300c16.5 0 30 13.5 30 30zm0 0" fill="#725d57"/><path d="m360 481v31h-180v-61h150c16.5 0 30 13.5 30 30zm0 0" fill="#53433f"/></svg>